# xmcd
#
# Track frame offsets:
#	150
#	21568
#	35036
#	48210
#	62360
#	78657
#	90677
#	104854
#
# Disc length: 1601 seconds
#
# Revision: 0
# Processed by: cddbd v1.4PL0 Copyright (c) Steve Scherf et al.
# Submitted via: EasyCDDAExtractor 4.6.9.1
#
DISCID=6a063f08
DTITLE=Alan Jackson - Greatest Hits - Vol II - CD 2
DYEAR=2003
DGENRE=Country
TTITLE0=Job Description
TTITLE1=Topical Depression
TTITLE2=Let's Get Back To Me And You
TTITLE3=You Can't Give Up On Love
TTITLE4=Hole In The Wall
TTITLE5=Buicks To The Moon
TTITLE6=When Love Comes Around
TTITLE7=The Sounds
EXTD=
EXTT0=
EXTT1=
EXTT2=
EXTT3=
EXTT4=
EXTT5=
EXTT6=
EXTT7=
PLAYORDER=
